<mxfile host="app.diagrams.net" modified="2023-10-05T13:05:57.709Z" agent="Mozilla/5.0 (Windows NT 10.0; Win64; x64) AppleWebKit/537.36 (KHTML, like Gecko) Chrome/117.0.0.0 Safari/537.36" etag="RGAH4kNam1Or9TY5tn_r" version="22.0.2" type="github">
  <diagram id="31b32b95-0358-9bc7-6ba0-a27c054ed1a7" name="Page-1">
    <mxGraphModel dx="2552" dy="882" grid="1" gridSize="10" guides="1" tooltips="1" connect="1" arrows="1" fold="1" page="1" pageScale="1" pageWidth="827" pageHeight="1169" background="none" math="0" shadow="1">
      <root>
        <mxCell id="0" />
        <mxCell id="1" parent="0" />
        <mxCell id="zXMieFwK6FEv-dSg_Cmh-125" value="API Gateway" style="rounded=0;whiteSpace=wrap;html=1;labelPosition=center;verticalLabelPosition=middle;align=center;verticalAlign=middle;fontStyle=1;labelBackgroundColor=none;fontSize=14;container=0;fillColor=#993C2C;strokeColor=#4F688C;gradientColor=none;strokeWidth=2;" vertex="1" parent="1">
          <mxGeometry x="-257.6068780281514" y="521.6281160476678" width="132.82223707292624" height="440.0954456997861" as="geometry" />
        </mxCell>
        <mxCell id="zXMieFwK6FEv-dSg_Cmh-162" value="&lt;p style=&quot;line-height: 120%; font-size: 13px;&quot;&gt;Talent Management System&lt;br style=&quot;font-size: 13px;&quot;&gt;(TMS)&lt;br style=&quot;font-size: 13px;&quot;&gt;&lt;/p&gt;" style="shape=ext;double=1;whiteSpace=wrap;html=1;aspect=fixed;labelBackgroundColor=none;container=0;fillColor=#6D9DC9;strokeColor=#4F688C;gradientColor=none;fontStyle=1;fillStyle=solid;fontSize=13;strokeWidth=2;" vertex="1" parent="1">
          <mxGeometry x="73.93362088589086" y="606.2683546619173" width="99.02147528245187" height="99.02147528245187" as="geometry" />
        </mxCell>
        <mxCell id="zXMieFwK6FEv-dSg_Cmh-187" value="MicroService" style="text;html=1;align=center;verticalAlign=middle;resizable=0;points=[];autosize=1;strokeColor=none;fillColor=none;fontSize=12;labelBackgroundColor=none;container=0;fontStyle=1" vertex="1" parent="1">
          <mxGeometry x="73.93362088589086" y="705.288636873122" width="100" height="30" as="geometry" />
        </mxCell>
        <mxCell id="zXMieFwK6FEv-dSg_Cmh-186" value="MicroService" style="text;html=1;align=center;verticalAlign=middle;resizable=0;points=[];autosize=1;strokeColor=none;fillColor=none;fontSize=12;labelBackgroundColor=none;container=0;fontStyle=1" vertex="1" parent="1">
          <mxGeometry x="73.93362088589086" y="873.7411589638505" width="100" height="30" as="geometry" />
        </mxCell>
        <mxCell id="zXMieFwK6FEv-dSg_Cmh-210" value="Microservices Architecture Diagram" style="text;html=1;align=center;verticalAlign=middle;resizable=0;points=[];autosize=1;strokeColor=none;fillColor=none;fontStyle=5;fontSize=24;" vertex="1" parent="1">
          <mxGeometry x="-190.00000000000006" y="40" width="430" height="40" as="geometry" />
        </mxCell>
        <mxCell id="zXMieFwK6FEv-dSg_Cmh-211" value="" style="group" vertex="1" connectable="0" parent="1">
          <mxGeometry x="-97.16365301846888" y="654.2390923031433" width="136.84715334786338" height="12.102624756744149" as="geometry" />
        </mxCell>
        <mxCell id="zXMieFwK6FEv-dSg_Cmh-194" value="" style="edgeStyle=orthogonalEdgeStyle;rounded=0;orthogonalLoop=1;jettySize=auto;html=1;movable=1;resizable=1;rotatable=1;deletable=1;editable=1;locked=0;connectable=1;strokeWidth=2;labelBackgroundColor=none;fontColor=default;" edge="1" parent="zXMieFwK6FEv-dSg_Cmh-211">
          <mxGeometry relative="1" as="geometry">
            <mxPoint as="sourcePoint" />
            <mxPoint x="136.84715334786338" as="targetPoint" />
          </mxGeometry>
        </mxCell>
        <mxCell id="zXMieFwK6FEv-dSg_Cmh-195" value="" style="edgeStyle=orthogonalEdgeStyle;rounded=0;orthogonalLoop=1;jettySize=auto;html=1;movable=1;resizable=1;rotatable=1;deletable=1;editable=1;locked=0;connectable=1;strokeWidth=2;labelBackgroundColor=none;fontColor=default;" edge="1" parent="zXMieFwK6FEv-dSg_Cmh-211">
          <mxGeometry relative="1" as="geometry">
            <mxPoint x="136.84715334786338" y="12.102624756744149" as="sourcePoint" />
            <mxPoint y="12.102624756744149" as="targetPoint" />
          </mxGeometry>
        </mxCell>
        <mxCell id="zXMieFwK6FEv-dSg_Cmh-212" value="" style="group" vertex="1" connectable="0" parent="1">
          <mxGeometry x="-97.16365301846888" y="829.1770319688083" width="136.84715334786338" height="12.102624756744149" as="geometry" />
        </mxCell>
        <mxCell id="zXMieFwK6FEv-dSg_Cmh-197" value="" style="edgeStyle=orthogonalEdgeStyle;rounded=0;orthogonalLoop=1;jettySize=auto;html=1;movable=1;resizable=1;rotatable=1;deletable=1;editable=1;locked=0;connectable=1;strokeWidth=2;labelBackgroundColor=none;fontColor=default;" edge="1" parent="zXMieFwK6FEv-dSg_Cmh-212">
          <mxGeometry relative="1" as="geometry">
            <mxPoint as="sourcePoint" />
            <mxPoint x="136.84715334786338" as="targetPoint" />
          </mxGeometry>
        </mxCell>
        <mxCell id="zXMieFwK6FEv-dSg_Cmh-198" value="" style="edgeStyle=orthogonalEdgeStyle;rounded=0;orthogonalLoop=1;jettySize=auto;html=1;movable=1;resizable=1;rotatable=1;deletable=1;editable=1;locked=0;connectable=1;strokeWidth=2;labelBackgroundColor=none;fontColor=default;" edge="1" parent="zXMieFwK6FEv-dSg_Cmh-212">
          <mxGeometry relative="1" as="geometry">
            <mxPoint x="136.84715334786338" y="12.102624756744149" as="sourcePoint" />
            <mxPoint y="12.102624756744149" as="targetPoint" />
          </mxGeometry>
        </mxCell>
        <mxCell id="zXMieFwK6FEv-dSg_Cmh-153" value="" style="edgeStyle=orthogonalEdgeStyle;rounded=0;orthogonalLoop=1;jettySize=auto;html=1;movable=1;resizable=1;rotatable=1;deletable=1;editable=1;locked=0;connectable=1;strokeWidth=2;labelBackgroundColor=none;fontColor=default;" edge="1" parent="1">
          <mxGeometry relative="1" as="geometry">
            <mxPoint x="-404.2647647961741" y="753.2283443471804" as="sourcePoint" />
            <mxPoint x="-281.038040000234" y="753.2283443471804" as="targetPoint" />
          </mxGeometry>
        </mxCell>
        <mxCell id="zXMieFwK6FEv-dSg_Cmh-154" value="" style="edgeStyle=orthogonalEdgeStyle;rounded=0;orthogonalLoop=1;jettySize=auto;html=1;movable=1;resizable=1;rotatable=1;deletable=1;editable=1;locked=0;connectable=1;strokeWidth=2;labelBackgroundColor=none;fontColor=default;" edge="1" parent="1">
          <mxGeometry relative="1" as="geometry">
            <mxPoint x="-281.038040000234" y="765.3309691039245" as="sourcePoint" />
            <mxPoint x="-404.2647647961741" y="765.3309691039245" as="targetPoint" />
          </mxGeometry>
        </mxCell>
        <mxCell id="zXMieFwK6FEv-dSg_Cmh-220" value="&lt;p style=&quot;line-height: 120%; font-size: 13px;&quot;&gt;User Management Service&lt;br&gt;(UMS)&lt;/p&gt;" style="shape=ext;double=1;whiteSpace=wrap;html=1;aspect=fixed;labelBackgroundColor=none;container=0;fillColor=#769C3F;strokeColor=#4F688C;gradientColor=none;fontStyle=1;fillStyle=solid;fontSize=13;" vertex="1" parent="1">
          <mxGeometry x="73.93362088589086" y="774.7183546619173" width="99.02147528245187" height="99.02147528245187" as="geometry" />
        </mxCell>
        <mxCell id="zXMieFwK6FEv-dSg_Cmh-221" value="Database" style="shape=datastore;whiteSpace=wrap;html=1;labelBackgroundColor=none;container=0;fillColor=#D9A642;strokeColor=#666666;fontStyle=1;gradientColor=none;gradientDirection=north;strokeWidth=3;" vertex="1" parent="1">
          <mxGeometry x="349.0034600806115" y="796.7207408044119" width="66.41111853646312" height="77.01670299746257" as="geometry" />
        </mxCell>
        <mxCell id="zXMieFwK6FEv-dSg_Cmh-224" value="&lt;p style=&quot;line-height: 120%; font-size: 13px;&quot;&gt;TBD&lt;/p&gt;" style="shape=ext;double=1;whiteSpace=wrap;html=1;aspect=fixed;labelBackgroundColor=none;container=0;fillColor=#DF5347;strokeColor=#660000;gradientColor=none;fontStyle=1;fillStyle=solid;fontSize=13;strokeWidth=2;" vertex="1" parent="1">
          <mxGeometry x="35.68362088589086" y="940.9983546619173" width="99.02147528245187" height="99.02147528245187" as="geometry" />
        </mxCell>
        <mxCell id="zXMieFwK6FEv-dSg_Cmh-225" value="&lt;p style=&quot;line-height: 120%; font-size: 13px;&quot;&gt;TBD&lt;/p&gt;" style="shape=ext;double=1;whiteSpace=wrap;html=1;aspect=fixed;labelBackgroundColor=none;container=0;fillColor=#2B76B8;strokeColor=#4F688C;gradientColor=none;fontStyle=1;fillStyle=solid;fontSize=13;strokeWidth=2;" vertex="1" parent="1">
          <mxGeometry x="39.68362088589086" y="445.99835466191735" width="99.02147528245187" height="99.02147528245187" as="geometry" />
        </mxCell>
        <mxCell id="zXMieFwK6FEv-dSg_Cmh-226" value="Database" style="shape=datastore;whiteSpace=wrap;html=1;labelBackgroundColor=none;container=0;fillColor=#D9A642;strokeColor=#666666;fontStyle=1;gradientColor=none;gradientDirection=north;strokeWidth=3;" vertex="1" parent="1">
          <mxGeometry x="359.0034600806115" y="617.2707408044121" width="66.41111853646312" height="77.01670299746257" as="geometry" />
        </mxCell>
        <mxCell id="zXMieFwK6FEv-dSg_Cmh-227" value="Database" style="shape=datastore;whiteSpace=wrap;html=1;labelBackgroundColor=none;container=0;fillColor=#D9A642;strokeColor=#666666;fontStyle=1;gradientColor=none;gradientDirection=north;strokeWidth=3;" vertex="1" parent="1">
          <mxGeometry x="281.0034600806115" y="988.000740804412" width="66.41111853646312" height="77.01670299746257" as="geometry" />
        </mxCell>
        <mxCell id="zXMieFwK6FEv-dSg_Cmh-228" value="Database" style="shape=datastore;whiteSpace=wrap;html=1;labelBackgroundColor=none;container=0;fillColor=#D9A642;strokeColor=#666666;fontStyle=1;gradientColor=none;gradientDirection=north;strokeWidth=3;" vertex="1" parent="1">
          <mxGeometry x="292.59346008061146" y="416.000740804412" width="66.41111853646312" height="77.01670299746257" as="geometry" />
        </mxCell>
        <mxCell id="zXMieFwK6FEv-dSg_Cmh-236" value="" style="group" vertex="1" connectable="0" parent="1">
          <mxGeometry x="192.99634698153113" y="829.1790923031432" width="136.84715334786338" height="12.102624756744149" as="geometry" />
        </mxCell>
        <mxCell id="zXMieFwK6FEv-dSg_Cmh-237" value="" style="edgeStyle=orthogonalEdgeStyle;rounded=0;orthogonalLoop=1;jettySize=auto;html=1;movable=1;resizable=1;rotatable=1;deletable=1;editable=1;locked=0;connectable=1;strokeWidth=2;labelBackgroundColor=none;fontColor=default;" edge="1" parent="zXMieFwK6FEv-dSg_Cmh-236">
          <mxGeometry relative="1" as="geometry">
            <mxPoint as="sourcePoint" />
            <mxPoint x="136.84715334786338" as="targetPoint" />
          </mxGeometry>
        </mxCell>
        <mxCell id="zXMieFwK6FEv-dSg_Cmh-238" value="" style="edgeStyle=orthogonalEdgeStyle;rounded=0;orthogonalLoop=1;jettySize=auto;html=1;movable=1;resizable=1;rotatable=1;deletable=1;editable=1;locked=0;connectable=1;strokeWidth=2;labelBackgroundColor=none;fontColor=default;" edge="1" parent="zXMieFwK6FEv-dSg_Cmh-236">
          <mxGeometry relative="1" as="geometry">
            <mxPoint x="136.84715334786338" y="12.102624756744149" as="sourcePoint" />
            <mxPoint y="12.102624756744149" as="targetPoint" />
          </mxGeometry>
        </mxCell>
        <mxCell id="zXMieFwK6FEv-dSg_Cmh-239" value="" style="group" vertex="1" connectable="0" parent="1">
          <mxGeometry x="192.99634698153113" y="654.2390923031433" width="136.84715334786338" height="12.102624756744149" as="geometry" />
        </mxCell>
        <mxCell id="zXMieFwK6FEv-dSg_Cmh-240" value="" style="edgeStyle=orthogonalEdgeStyle;rounded=0;orthogonalLoop=1;jettySize=auto;html=1;movable=1;resizable=1;rotatable=1;deletable=1;editable=1;locked=0;connectable=1;strokeWidth=2;labelBackgroundColor=none;fontColor=default;" edge="1" parent="zXMieFwK6FEv-dSg_Cmh-239">
          <mxGeometry relative="1" as="geometry">
            <mxPoint as="sourcePoint" />
            <mxPoint x="136.84715334786338" as="targetPoint" />
          </mxGeometry>
        </mxCell>
        <mxCell id="zXMieFwK6FEv-dSg_Cmh-241" value="" style="edgeStyle=orthogonalEdgeStyle;rounded=0;orthogonalLoop=1;jettySize=auto;html=1;movable=1;resizable=1;rotatable=1;deletable=1;editable=1;locked=0;connectable=1;strokeWidth=2;labelBackgroundColor=none;fontColor=default;" edge="1" parent="zXMieFwK6FEv-dSg_Cmh-239">
          <mxGeometry relative="1" as="geometry">
            <mxPoint x="136.84715334786338" y="12.102624756744149" as="sourcePoint" />
            <mxPoint y="12.102624756744149" as="targetPoint" />
          </mxGeometry>
        </mxCell>
        <mxCell id="zXMieFwK6FEv-dSg_Cmh-247" value="" style="group;rotation=15;" vertex="1" connectable="0" parent="1">
          <mxGeometry x="158.92999999999995" y="465.51" width="101.66666666666663" height="60" as="geometry" />
        </mxCell>
        <mxCell id="zXMieFwK6FEv-dSg_Cmh-248" value="" style="endArrow=classic;html=1;rounded=0;strokeWidth=2;" edge="1" parent="zXMieFwK6FEv-dSg_Cmh-247">
          <mxGeometry width="50" height="50" relative="1" as="geometry">
            <mxPoint x="-1" y="27" as="sourcePoint" />
            <mxPoint x="101" y="2" as="targetPoint" />
          </mxGeometry>
        </mxCell>
        <mxCell id="zXMieFwK6FEv-dSg_Cmh-249" value="" style="endArrow=classic;html=1;rounded=0;strokeWidth=2;" edge="1" parent="zXMieFwK6FEv-dSg_Cmh-247">
          <mxGeometry width="50" height="50" relative="1" as="geometry">
            <mxPoint x="108" y="14" as="sourcePoint" />
            <mxPoint x="6" y="39" as="targetPoint" />
          </mxGeometry>
        </mxCell>
        <mxCell id="zXMieFwK6FEv-dSg_Cmh-250" value="" style="group;rotation=-135;" vertex="1" connectable="0" parent="1">
          <mxGeometry x="172.95999999999992" y="956" width="101.66666666666663" height="60" as="geometry" />
        </mxCell>
        <mxCell id="zXMieFwK6FEv-dSg_Cmh-251" value="" style="endArrow=classic;html=1;rounded=0;strokeWidth=2;" edge="1" parent="zXMieFwK6FEv-dSg_Cmh-250">
          <mxGeometry width="50" height="50" relative="1" as="geometry">
            <mxPoint x="80" y="73" as="sourcePoint" />
            <mxPoint x="-21" y="43" as="targetPoint" />
          </mxGeometry>
        </mxCell>
        <mxCell id="zXMieFwK6FEv-dSg_Cmh-252" value="" style="endArrow=classic;html=1;rounded=0;strokeWidth=2;" edge="1" parent="zXMieFwK6FEv-dSg_Cmh-250">
          <mxGeometry width="50" height="50" relative="1" as="geometry">
            <mxPoint x="-21" y="29" as="sourcePoint" />
            <mxPoint x="79" y="58" as="targetPoint" />
          </mxGeometry>
        </mxCell>
        <mxCell id="zXMieFwK6FEv-dSg_Cmh-259" value="" style="group;rotation=-135;" vertex="1" connectable="0" parent="1">
          <mxGeometry x="-70.8900000000001" y="916" width="101.66666666666663" height="60" as="geometry" />
        </mxCell>
        <mxCell id="zXMieFwK6FEv-dSg_Cmh-260" value="" style="endArrow=classic;html=1;rounded=0;strokeWidth=2;" edge="1" parent="zXMieFwK6FEv-dSg_Cmh-259">
          <mxGeometry width="50" height="50" relative="1" as="geometry">
            <mxPoint x="76" y="78" as="sourcePoint" />
            <mxPoint x="-25" y="48" as="targetPoint" />
          </mxGeometry>
        </mxCell>
        <mxCell id="zXMieFwK6FEv-dSg_Cmh-261" value="" style="endArrow=classic;html=1;rounded=0;strokeWidth=2;" edge="1" parent="zXMieFwK6FEv-dSg_Cmh-259">
          <mxGeometry width="50" height="50" relative="1" as="geometry">
            <mxPoint x="-25" y="34" as="sourcePoint" />
            <mxPoint x="75" y="63" as="targetPoint" />
          </mxGeometry>
        </mxCell>
        <mxCell id="zXMieFwK6FEv-dSg_Cmh-262" value="MicroService" style="text;html=1;align=center;verticalAlign=middle;resizable=0;points=[];autosize=1;strokeColor=none;fillColor=none;fontSize=12;labelBackgroundColor=none;container=0;fontStyle=1" vertex="1" parent="1">
          <mxGeometry x="39.68362088589086" y="545.018636873122" width="100" height="30" as="geometry" />
        </mxCell>
        <mxCell id="zXMieFwK6FEv-dSg_Cmh-264" value="MicroService" style="text;html=1;align=center;verticalAlign=middle;resizable=0;points=[];autosize=1;strokeColor=none;fillColor=none;fontSize=12;labelBackgroundColor=none;container=0;fontStyle=1" vertex="1" parent="1">
          <mxGeometry x="35.68362088589086" y="1040.018636873122" width="100" height="30" as="geometry" />
        </mxCell>
        <mxCell id="zXMieFwK6FEv-dSg_Cmh-265" value="" style="group;rotation=15;" vertex="1" connectable="0" parent="1">
          <mxGeometry x="-97" y="500.57" width="110" height="60" as="geometry" />
        </mxCell>
        <mxCell id="zXMieFwK6FEv-dSg_Cmh-266" value="" style="endArrow=classic;html=1;rounded=0;strokeWidth=2;" edge="1" parent="zXMieFwK6FEv-dSg_Cmh-265">
          <mxGeometry width="50" height="50" relative="1" as="geometry">
            <mxPoint x="-1" y="25" as="sourcePoint" />
            <mxPoint x="107" y="3" as="targetPoint" />
          </mxGeometry>
        </mxCell>
        <mxCell id="zXMieFwK6FEv-dSg_Cmh-267" value="" style="endArrow=classic;html=1;rounded=0;strokeWidth=2;" edge="1" parent="zXMieFwK6FEv-dSg_Cmh-265">
          <mxGeometry width="50" height="50" relative="1" as="geometry">
            <mxPoint x="114" y="16" as="sourcePoint" />
            <mxPoint x="7" y="38" as="targetPoint" />
          </mxGeometry>
        </mxCell>
        <mxCell id="zXMieFwK6FEv-dSg_Cmh-268" value="Client" style="ellipse;whiteSpace=wrap;html=1;aspect=fixed;fillColor=#854E67;fontColor=#FFFFFF;fontSize=16;" vertex="1" parent="1">
          <mxGeometry x="-560" y="694.29" width="128.72" height="128.72" as="geometry" />
        </mxCell>
      </root>
    </mxGraphModel>
  </diagram>
</mxfile>
